<svg height="170" viewBox="0 0 171 170" width="171" xmlns="http://www.w3.org/2000/svg"><g fill="#fff" fill-rule="evenodd" transform="translate(.550005 .200005)"><rect height="42.399998" rx="10.599999" width="42.399998" x="63.792786" y="63.599997"/><path d="m154.084359.71775825-32.145469 32.14546935c-24.8473075-17.7760807-59.6067976-15.502535-81.9180941 6.8087615-22.3157329 22.3157329-24.5813381 57.074729-6.8086907 81.9180229l-32.30176095 32.301761c-.4680344-1.751583-.71755494-3.592859-.71755494-5.492952v-127.1976507c0-11.70908305 9.4818453-21.2011703 21.20117029-21.2011703h127.1976504c1.899623 0 3.740894.24956403 5.492749.71775825zm14.990866 14.99045965c.468035 1.7515832.717555 3.5928592.717555 5.4929524v127.1976507c0 11.709083-9.481845 21.20117-21.20117 21.20117h-127.1976504c-1.8996232 0-3.7408945-.249564-5.4927491-.717758l32.327653-32.327653c24.8347915 17.635007 59.4790905 15.318207 81.7359105-6.938613 22.261235-22.261236 24.570152-56.9050339 6.938539-81.735837z"/></g></svg>